<svg fill="none" height="24" viewBox="0 0 24 24" width="24" xmlns="http://www.w3.org/2000/svg"><circle cx="12" cy="12" fill="#666666" r="12"></circle><path clip-rule="evenodd" d="M4.62476 16.6502C6.24749 16.7925 7.66871 16.4058 8.9835 15.4657C8.69897 15.3933 8.45737 15.3443 8.22358 15.2705C7.34303 14.9927 6.73105 14.4102 6.34931 13.579C6.23153 13.3225 6.25742 13.3019 6.53734 13.3065C6.82648 13.3111 7.12094 13.3533 7.46472 13.2235C6.93823 13.0724 6.51712 12.8396 6.16093 12.5069C5.58868 11.9733 5.24951 11.3169 5.18991 10.5308C5.16579 10.2129 5.20587 10.1909 5.48934 10.32C5.76642 10.4467 6.05272 10.5294 6.4004 10.5315C6.18399 10.2824 5.94913 10.1022 5.78203 9.85955C5.11896 8.89705 5.00649 7.8785 5.46415 6.80176C5.58584 6.51511 5.63444 6.50411 5.84127 6.73648C6.85664 7.87708 8.07422 8.71469 9.51886 9.2167C10.156 9.43808 10.8113 9.58247 11.4818 9.65094C11.8263 9.68606 11.8557 9.64917 11.8164 9.31178C11.6748 8.11087 12.3546 6.85427 13.4561 6.2806C14.5595 5.70658 15.9733 5.86978 16.8708 6.69072C17.0454 6.85037 17.2121 6.88513 17.4317 6.82518C17.9004 6.69639 18.3524 6.53036 18.7823 6.30295C18.8487 6.26818 18.9072 6.19546 19.0325 6.24193C18.8267 6.88478 18.4198 7.37472 17.9043 7.79725C18.4116 7.73659 18.8859 7.59078 19.3773 7.39884C19.3879 7.56807 19.2886 7.65357 19.218 7.74475C18.9157 8.13571 18.5798 8.49757 18.181 8.79097C17.9948 8.92827 17.9309 9.08614 17.9344 9.31391C17.9657 11.335 17.3168 13.1373 16.1084 14.7348C14.6727 16.6332 12.7445 17.7039 10.3877 17.9899C8.44141 18.2261 6.609 17.8575 4.90432 16.8801C4.84223 16.8447 4.78192 16.8053 4.72338 16.7648C4.70281 16.7503 4.68932 16.7262 4.62476 16.6502Z" fill="white" fill-rule="evenodd"></path></svg>