<svg xmlns="http://www.w3.org/2000/svg" viewBox="0 0 24 24" id="TrackLocation"><path fill="white" d="M16 10.5a4 4 0 1 0-8 0 4 4 0 0 0 8 0M12 8a2.5 2.5 0 1 1 0 5 2.5 2.5 0 0 1 0-5"/><path fill="white" d="m17.46 16.98.46-.6a13.92 13.92 0 0 0 2.22-3.85c.23-.75.36-1.54.36-2.36C20.5 5.66 16.7 2 12 2s-8.5 3.66-8.5 8.17c0 .82.13 1.62.36 2.37.25.77.72 1.68 1.44 2.74l.37.54c.27.37.56.76.88 1.16l.49.62.53.64.58.66.6.7.66.7.7.75.72.76.12.12.26.27.8.8.4-.4.76-.8.73-.76.7-.74.33-.36.63-.7.6-.68.54-.65c.1-.1.18-.21.27-.32zM12 3.5c3.92 0 7 3.04 7 6.67a6 6 0 0 1-.3 1.9c-.24.78-.85 1.9-1.98 3.4l-.44.58-.48.6-.24.3-.55.64-.57.65-.63.7-.31.34-.69.73-.72.75-.09.1-.09-.1-.72-.75-.68-.72-.64-.7-.6-.67-.56-.66a45.8 45.8 0 0 1-.5-.6l-.49-.61c-.3-.38-.57-.75-.82-1.1l-.36-.52a9.75 9.75 0 0 1-1.25-2.34A6.37 6.37 0 0 1 5 10.17C5 6.54 8.08 3.5 12 3.5"/></svg>